# xmcd
#
# Track frame offsets: 
#        150
#        17940
#        34182
#        53527
#        69102
#        89145
#        105275
#        124780
#        146335
#        161400
#        183077
#        204362
#        226987
#
# Disc length: 3239 seconds
#
# Revision: 2
# Processed by: cddbd v1.5.1PL2 Copyright (c) Steve Scherf et al.
# Submitted via: ExactAudioCopy v0.95b4
#
DISCID=9e0ca50d
DTITLE=Fenton Robinson - Special Road
DYEAR=1993
DGENRE=Blues
TTITLE0=7-11 Blues
TTITLE1=Love Is Just A Gamble
TTITLE2=Special Road
TTITLE3=Too Many Drivers
TTITLE4=Baby Please Don't Go
TTITLE5=Crying The Blues
TTITLE6=Find A Way
TTITLE7=R.M. Blues
TTITLE8=Slick And Greasy
TTITLE9=Blue Monday
TTITLE10=Money Problem
TTITLE11=Nothing But A Fool
TTITLE12=Little Turch
EXTD=
EXTT0=
EXTT1=
EXTT2=
EXTT3=
EXTT4=
EXTT5=
EXTT6=
EXTT7=
EXTT8=
EXTT9=
EXTT10=
EXTT11=
EXTT12=
PLAYORDER=
